<?xml version="1.0" encoding="utf-8"?>
<!-- Designed by Vexels.com - 2020 All Rights Reserved - https://vexels.com/terms-and-conditions/  -->
<svg version="1.1" id="Layer_1" xmlns="http://www.w3.org/2000/svg" xmlns:xlink="http://www.w3.org/1999/xlink" x="0px" y="0px"
	 viewBox="0 0 1200 1200" enable-background="new 0 0 1200 1200" xml:space="preserve">
<g>
	<path fill="none" d="M709.829,355.299c40.225,0,72.832-32.609,72.832-72.834c0-1.065-0.114-2.101-0.159-3.155
		c-1.664,38.75-33.514,69.679-72.673,69.679c-39.162,0-71.012-30.929-72.677-69.679c-0.045,1.054-0.159,2.09-0.159,3.155
		C636.993,322.69,669.603,355.299,709.829,355.299z"/>
	<path fill="none" d="M493.645,367.915c-8.02,30.401-23.612,57.704-44.618,79.833H546.4
		C523.675,425.278,505.605,398.144,493.645,367.915z"/>
	<path fill="none" d="M373.001,320.714c0-1.065-0.102-2.104-0.159-3.155c-1.648,30.465-26.801,54.681-57.676,54.681
		c-30.877,0-56.03-24.216-57.676-54.681c-0.059,1.051-0.16,2.09-0.16,3.155c0,31.942,25.894,57.836,57.837,57.836
		C347.107,378.55,373.001,352.655,373.001,320.714z"/>
	<path fill="none" d="M770.389,630.362h-1.986H293.297c-9.274,0-16.793-7.518-16.793-16.791v6.31
		c0,9.274,7.519,16.791,16.793,16.791h475.106h1.986c9.274,0,16.791-7.518,16.791-16.791v-6.31
		C787.18,622.844,779.663,630.362,770.389,630.362z"/>
	<path fill="#181918" d="M1059.5,528.837h-58.345c-5.484,0-9.93,4.446-9.93,9.929v25.96l-72.711,32.434v-7.611
		c0-10.37-8.406-18.777-18.777-18.777h-50.164V470.183c0-0.62-0.134-1.203-0.183-1.81c56.41-42.415,92.902-109.896,92.902-185.908
		C942.292,154.078,838.214,50,709.829,50c-113.925,0-208.642,81.973-228.551,190.138c-29.922-61.572-93.056-104.02-166.113-104.02
		c-101.949,0-184.595,82.646-184.595,184.596c0,66.479,35.155,124.731,87.876,157.231v81.29h-30.518
		c-6.954,0-12.59,5.637-12.59,12.591v98.439c0,6.954,5.637,12.591,12.59,12.591h30.518v152.69c0,12.391,10.045,22.435,22.435,22.435
		h181.228l-102.921,250.985c-6.233,15.195,1.037,32.571,16.238,38.804c3.696,1.515,7.511,2.231,11.272,2.231
		c11.711,0,22.814-6.962,27.533-18.469L486.405,857.98h89.655l112.167,273.551c4.718,11.507,15.822,18.469,27.534,18.469
		c3.759,0,7.576-0.716,11.27-2.231c15.201-6.233,22.471-23.608,16.238-38.804L640.354,857.98h186.784
		c12.39,0,22.435-10.045,22.435-22.435V734.956h50.164c10.37,0,18.777-8.407,18.777-18.777v-7.611l72.711,32.434v18.064
		c0,5.484,4.446,9.929,9.93,9.929h58.345c5.484,0,9.93-4.446,9.93-9.929v-220.3C1069.43,533.282,1064.984,528.837,1059.5,528.837z
		 M636.993,276.155c0-40.225,32.61-72.834,72.836-72.834c40.225,0,72.832,32.609,72.832,72.834c0,1.065-0.114,2.101-0.159,3.155
		c0.045,1.054,0.159,2.09,0.159,3.155c0,40.225-32.607,72.834-72.832,72.834c-40.226,0-72.836-32.609-72.836-72.834
		c0-1.065,0.114-2.101,0.159-3.155C637.107,278.256,636.993,277.221,636.993,276.155z M493.645,367.915
		c11.96,30.229,30.03,57.363,52.755,79.833h-97.373C470.033,425.619,485.625,398.316,493.645,367.915z M257.329,320.714
		c0-1.065,0.102-2.104,0.16-3.155c-0.059-1.051-0.16-2.09-0.16-3.155c0-31.942,25.894-57.836,57.837-57.836
		c31.941,0,57.835,25.894,57.835,57.836c0,1.065-0.102,2.104-0.159,3.155c0.057,1.051,0.159,2.09,0.159,3.155
		c0,31.942-25.894,57.836-57.835,57.836C283.222,378.55,257.329,352.655,257.329,320.714z M787.18,602.968v10.602v6.31
		c0,9.274-7.517,16.791-16.791,16.791h-1.986H293.297c-9.274,0-16.793-7.518-16.793-16.791v-6.31v-10.602v-6.31
		c0-9.274,7.519-16.792,16.793-16.792h475.447h1.645c9.274,0,16.791,7.518,16.791,16.792V602.968z"/>
</g>
</svg>
